<?xml version="1.0" encoding="utf-8"?>
<!-- Generator: Adobe Illustrator 23.0.3, SVG Export Plug-In . SVG Version: 6.00 Build 0)  -->
<svg version="1.1" id="logosvg.com" xmlns="http://www.w3.org/2000/svg" xmlns:xlink="http://www.w3.org/1999/xlink" x="0px"
	 y="0px" viewBox="0 0 400 300" style="enable-background:new 0 0 400 300;" xml:space="preserve">
<style type="text/css">
	.st0{fill:#6C1CD3;}
</style>
<path id="loogo" class="st0" d="M123.1,194.5c1.7,1.8,1.6,3.8,1.3,4.6h-31v18.5H75.1v-18.5H44.6V183l49.3-63.1H46.5v-19l28.6,0.3
	V82.4h18.3v18.7h29v15.1L73,179.7c0,0.2,35.2,0.2,41.3,0.4c0.3,0.2,1,2.3,1.9,4.1C118.2,188.3,120.4,191.5,123.1,194.5z
	 M236.3,185.1c-0.5-3-1.1-3.5-4.7-3.4c-1.7,0-3.4-0.1-3.7-0.3c-1.8-1.1-1.8-1.4-1.8-45.5c0-28.3-0.1-42.6-0.4-43.1
	c-0.4-0.8-1-0.8-9.3-0.8c-4.8,0-9.1,0.1-9.3,0.3c-0.4,0.2-0.6,9.8-0.6,46.2c0,49.2,0,48.4,2.1,52.6c2,3.8,6.7,7.2,12.1,8.6
	c3,0.8,11.7,0.9,15,0.2c4.3-0.9,5.1-2.2,3.4-5.6C238.1,192.2,236.7,187.7,236.3,185.1z M276.8,185.1l-1.7-3.3h-3.2
	c-4-0.1-4.4-0.3-5.1-2.1c-0.6-1.3-0.7-7.7-0.7-43.7c0-28.3-0.1-42.6-0.4-43.1c-0.4-0.8-1-0.8-9.3-0.8c-4.8,0-9.1,0.2-9.4,0.4
	c-0.6,0.3-0.7,5.9-0.7,45.8c0,43,0,45.6,0.8,48.6c1.5,5.9,4.8,9.5,11.2,12.2c2.4,1,3.5,1.2,8.4,1.3c6.6,0.2,9.9-0.3,13.3-2
	c3.3-1.6,3.4-2.7,0.6-6.9C279.5,189.8,277.8,186.9,276.8,185.1z M373.1,116.3c-2.8,3-8.3,3.7-11.7,1.4c-2.7-1.8-4.1-4.3-4-7.6
	c0-3.9,1.9-6.7,5.4-8.3c2.4-1,6.4-0.7,8.7,0.9C375.9,105.7,376.7,112.4,373.1,116.3z M369.7,103.4c-2.2-1.1-4.4-1.2-6.3-0.3
	c-7.1,3.2-5.6,13.8,2,14.5c2.7,0.3,4-0.1,5.8-1.7C375.4,112.2,374.6,105.9,369.7,103.4z M369.2,113c1.6,2.4,1.7,2.5,0.6,2.5
	c-0.5,0-1.3-0.9-2-2.2c-1-1.6-1.6-2.2-2.3-2.2c-0.9,0-1,0.2-1,2.2c0,1.6-0.2,2.2-0.6,2.2c-0.3,0-0.7-0.3-0.9-0.7
	c-0.3-0.8-0.3-8.9,0-9.4c0.1-0.2,1.4-0.3,3-0.3c3.1,0,4.5,0.9,4.5,2.8c0,1.1-1.1,2.5-2.2,2.9C368,110.9,368.2,111.6,369.2,113z
	 M368.8,108.2c0.1-0.6-0.1-1.2-0.4-1.4c-0.3-0.2-1.3-0.4-2.2-0.4c-1.6,0-1.7,0-1.7,1.6v1.5l2.1-0.1
	C368.4,109.2,368.6,109.1,368.8,108.2z M196.7,151.5c1,6.9,0.7,13.2-0.7,14.1c-0.3,0.2-12.8,0.4-27.7,0.4h-27.1l0.3,1.6
	c0.4,2.4,2.5,6.7,4.2,8.5c3.3,3.7,8.4,5.6,15.4,5.6c7.7,0,13.6-2,18.2-6.2c1.3-1.3,2.7-2.2,3.4-2.2s1.9,1,4,3.3
	c1.7,1.8,4.2,4.2,5.6,5.3c3.4,2.6,3.4,3.5,0.1,6.6c-5.3,5-11.8,8.5-19.5,10.7c-3.1,0.8-4.6,1-12,1c-7.5,0-8.9-0.1-12.2-1
	c-9.6-2.6-17-7.8-22-15.4c-4.5-6.8-6.4-13.9-6.4-23.6c0-6.9,0.9-11.6,3.2-17.6c4.2-10.9,14.1-19.5,25.2-22c1.8-0.4,3.5-0.8,3.7-0.9
	c0.3-0.1,3.3-0.2,6.7-0.2c4.9,0,7.1,0.2,9.9,0.8C184.4,124,194.2,135.1,196.7,151.5z M177.1,150.3l-0.3-1.4
	c-0.4-2.2-2.2-5.7-3.9-7.6c-1.8-2.1-5.7-4.3-8.9-4.9c-2.9-0.6-6.7-0.6-9.4,0.1c-6.3,1.6-11.3,6.5-12.6,12.4l-0.3,1.4h17.7H177.1z
	 M355.4,144c2.3,6.6,3,20.9,1.1,22.2h-55.1l0.3,1.1c2.1,9.6,8.5,14.3,19.6,14.4c7.9,0,13.5-1.9,18.3-6.2c3.2-2.9,3.9-2.8,6.7,0.4
	c1.2,1.4,3.8,3.9,5.7,5.5c4.1,3.4,4.1,3.6,0.3,7.3c-5,4.8-11.5,8.4-19,10.3c-2.4,0.7-5.3,1-10.5,1.1c-6.2,0.2-7.8,0.1-11.8-0.7
	c-12.5-2.6-21.7-9.7-26.8-20.6c-3.7-7.9-4.8-19-2.8-28.5c3.3-16.1,13.7-26.9,29.2-30.4c3.4-0.7,14.1-0.7,17.7,0
	c11.3,2.4,19.5,8.4,24.5,18.2C353.8,140.1,354.9,142.7,355.4,144z M337.1,149.3c0-1.7-3-7-4.8-8.7c-2.2-2-5.2-3.5-8.2-4.1
	c-10.2-2.2-19.8,3.4-22.1,12.7l-0.3,1.2H337v-1.1H337.1z"/>
</svg>
